<svg xmlns="http://www.w3.org/2000/svg" width="46.864" height="44.912"><path d="M23.432 0A23.229 23.229 0 000 23.026a23.064 23.064 0 0016.022 21.846c1.172.217 1.6-.5 1.6-1.107 0-.547-.02-2-.029-3.915-6.517 1.388-7.893-3.089-7.893-3.089a6.138 6.138 0 00-2.607-3.368c-2.123-1.427.164-1.4.164-1.4a4.9 4.9 0 013.589 2.372c2.089 3.521 5.485 2.5 6.825 1.916a4.875 4.875 0 011.485-3.081c-5.2-.576-10.673-2.556-10.673-11.378a8.8 8.8 0 012.412-6.178A8.056 8.056 0 0111.1 9.55s1.962-.617 6.444 2.361a22.467 22.467 0 0111.716 0c4.452-2.978 6.415-2.361 6.415-2.361a8.279 8.279 0 01.234 6.094 8.833 8.833 0 012.4 6.178c0 8.846-5.477 10.792-10.691 11.359a5.464 5.464 0 011.582 4.263c0 3.081-.029 5.557-.029 6.305 0 .6.41 1.324 1.611 1.093a22.994 22.994 0 0016.082-21.816A23.233 23.233 0 0023.432 0z" fill="#fff"/></svg>