<svg xmlns="http://www.w3.org/2000/svg" width="46.06" height="46.06"><path d="M14.395 38.053H8.1V17.722h6.3zm.628-26.808a3.688 3.688 0 10-3.686 3.689 3.689 3.689 0 003.686-3.689zm22.941 15.623c0-5.458-1.153-9.506-7.529-9.506a6.535 6.535 0 00-5.96 3.125h-.005v-2.765h-6.118v20.331h6.118V27.959c0-2.644.673-5.2 3.95-5.2 3.232 0 3.337 3.023 3.337 5.373v9.927h6.207zm8.1 13.794V5.4a5.4 5.4 0 00-5.4-5.4H5.4A5.4 5.4 0 000 5.4v35.262a5.4 5.4 0 005.4 5.4h35.262a5.4 5.4 0 005.398-5.4zM40.662 3.6a1.8 1.8 0 011.8 1.8v35.262a1.8 1.8 0 01-1.8 1.8H5.4a1.8 1.8 0 01-1.8-1.8V5.4a1.8 1.8 0 011.8-1.8zm0 0" fill="#fff"/></svg>