<svg xmlns="http://www.w3.org/2000/svg" width="56" height="42.656"><g fill="#fff"><g data-name="Group 9"><path data-name="Path 12" d="M28 31.166a1.638 1.638 0 01-.982-.326L9.844 18.012v24.644h36.312V18.012L28.982 30.839a1.639 1.639 0 01-.982.327z"/><path data-name="Path 13" d="M6.562 15.561L0 10.66v27.074a4.927 4.927 0 004.922 4.922h1.64z"/><path data-name="Path 14" d="M49.437 15.561v27.095h1.641A4.927 4.927 0 0056 37.734V10.66z"/></g><g data-name="Group 10"><path data-name="Path 15" d="M48.346 0H7.654L28 15.18z"/><path data-name="Path 16" d="M53.192.478L28.981 18.541a1.641 1.641 0 01-1.962 0L2.808.478A4.928 4.928 0 000 4.922v1.842a1.63 1.63 0 01.659.293L28 27.477l27.341-20.42A1.632 1.632 0 0156 6.764V4.922A4.928 4.928 0 0053.192.478z"/></g></g></svg>