<svg xmlns="http://www.w3.org/2000/svg" width="42.812" height="51.825"><g data-name="Group 8"><g data-name="Group 7" fill="#fff"><path data-name="Path 7" d="M42.478 11.6L31.215.33a1.122 1.122 0 00-.8-.33H3.378a3.384 3.384 0 00-3.38 3.38v45.065a3.384 3.384 0 003.38 3.38h36.054a3.384 3.384 0 003.38-3.378V12.393a1.123 1.123 0 00-.334-.793zM9.013 13.52V9.013h18.026v4.507zm31.546 34.925a1.127 1.127 0 01-1.127 1.127H3.378a1.128 1.128 0 01-1.127-1.127V3.38a1.128 1.128 0 011.127-1.127h23.661V6.76H7.886a1.127 1.127 0 00-1.127 1.127v6.76a1.127 1.127 0 001.127 1.127h32.673v32.671zm0-34.925H29.292V2.253h.66l10.607 10.606z"/><path data-name="Path 8" d="M7.887 22.53h13.52a1.127 1.127 0 100-2.253H7.887a1.127 1.127 0 100 2.253z"/><path data-name="Path 9" d="M7.887 36.052h13.52a1.127 1.127 0 000-2.253H7.887a1.127 1.127 0 000 2.253z"/><path data-name="Path 10" d="M6.756 28.166a1.126 1.126 0 001.127 1.127h27.043a1.127 1.127 0 000-2.253H7.887a1.126 1.126 0 00-1.131 1.126z"/><path data-name="Path 11" d="M34.926 40.563H7.887a1.127 1.127 0 000 2.253h27.039a1.127 1.127 0 000-2.253z"/></g></g></svg>