<svg xmlns="http://www.w3.org/2000/svg" width="1967.408" height="902.74"><defs><clipPath id="a"><path class="a" transform="translate(307 848)" d="M0 0h246.6v244.732H0z"/></clipPath><style>.a,.e{fill:rgba(255,255,255,.07)}.b{fill:none}.d,.e{stroke:none}</style></defs><g class="b"><path class="d" d="M151.08 601.726l23.227-12.847 22.766 13.65-.463 26.496-23.228 12.846-22.765-13.649z"/><path class="e" d="M160.717 622.618l12.867 7.714 13.129-7.26.26-14.939-12.867-7.715-13.129 7.262-.26 14.938m-10.1 5.604l.463-26.496 23.227-12.847 22.766 13.65-.463 26.496-23.228 12.846-22.765-13.649z"/></g><g transform="rotate(45 1263.652 262.31)" clip-path="url(#a)"><g transform="translate(290.186 831.186)"><circle class="a" cx="14.945" cy="14.945" r="14.945" transform="translate(1.868)"/><circle class="a" cx="14.945" cy="14.945" r="14.945" transform="translate(0 141.982)"/><circle class="a" cx="14.945" cy="14.945" r="14.945" transform="translate(1.868 70.991)"/><circle class="a" cx="14.945" cy="14.945" r="14.945" transform="translate(0 212.973)"/><circle class="a" cx="14.945" cy="14.945" r="14.945" transform="translate(1.868 35.495)"/><circle class="a" cx="14.945" cy="14.945" r="14.945" transform="translate(0 177.477)"/><circle class="a" cx="14.945" cy="14.945" r="14.945" transform="translate(1.868 106.486)"/><circle class="a" cx="14.945" cy="14.945" r="14.945" transform="translate(0 248.468)"/><circle class="a" cx="14.945" cy="14.945" r="14.945" transform="translate(143.85)"/><circle class="a" cx="14.945" cy="14.945" r="14.945" transform="translate(141.982 141.982)"/><circle class="a" cx="14.945" cy="14.945" r="14.945" transform="translate(143.85 70.991)"/><circle class="a" cx="14.945" cy="14.945" r="14.945" transform="translate(141.982 212.973)"/><circle class="a" cx="14.945" cy="14.945" r="14.945" transform="translate(143.85 35.495)"/><circle class="a" cx="14.945" cy="14.945" r="14.945" transform="translate(141.982 177.477)"/><circle class="a" cx="14.945" cy="14.945" r="14.945" transform="translate(143.85 106.486)"/><circle class="a" cx="14.945" cy="14.945" r="14.945" transform="translate(141.982 248.468)"/><circle class="a" cx="14.945" cy="14.945" r="14.945" transform="translate(72.859)"/><circle class="a" cx="14.945" cy="14.945" r="14.945" transform="translate(70.991 141.982)"/><circle class="a" cx="14.945" cy="14.945" r="14.945" transform="translate(72.859 70.991)"/><circle class="a" cx="14.945" cy="14.945" r="14.945" transform="translate(70.991 212.973)"/><circle class="a" cx="14.945" cy="14.945" r="14.945" transform="translate(72.859 35.495)"/><circle class="a" cx="14.945" cy="14.945" r="14.945" transform="translate(70.991 177.477)"/><circle class="a" cx="14.945" cy="14.945" r="14.945" transform="translate(72.859 106.486)"/><circle class="a" cx="14.945" cy="14.945" r="14.945" transform="translate(70.991 248.468)"/><circle class="a" cx="14.945" cy="14.945" r="14.945" transform="translate(214.841)"/><circle class="a" cx="14.945" cy="14.945" r="14.945" transform="translate(212.973 141.982)"/><circle class="a" cx="14.945" cy="14.945" r="14.945" transform="translate(214.841 70.991)"/><circle class="a" cx="14.945" cy="14.945" r="14.945" transform="translate(212.973 212.973)"/><circle class="a" cx="14.945" cy="14.945" r="14.945" transform="translate(214.841 35.495)"/><circle class="a" cx="14.945" cy="14.945" r="14.945" transform="translate(212.973 177.477)"/><circle class="a" cx="14.945" cy="14.945" r="14.945" transform="translate(214.841 106.486)"/><circle class="a" cx="14.945" cy="14.945" r="14.945" transform="translate(212.973 248.468)"/><circle class="a" cx="14.945" cy="14.945" r="14.945" transform="translate(37.364)"/><circle class="a" cx="14.945" cy="14.945" r="14.945" transform="translate(35.495 141.982)"/><circle class="a" cx="14.945" cy="14.945" r="14.945" transform="translate(37.364 70.991)"/><circle class="a" cx="14.945" cy="14.945" r="14.945" transform="translate(35.495 212.973)"/><circle class="a" cx="14.945" cy="14.945" r="14.945" transform="translate(37.364 35.495)"/><circle class="a" cx="14.945" cy="14.945" r="14.945" transform="translate(35.495 177.477)"/><circle class="a" cx="14.945" cy="14.945" r="14.945" transform="translate(37.364 106.486)"/><circle class="a" cx="14.945" cy="14.945" r="14.945" transform="translate(35.495 248.468)"/><circle class="a" cx="14.945" cy="14.945" r="14.945" transform="translate(179.345)"/><circle class="a" cx="14.945" cy="14.945" r="14.945" transform="translate(177.477 141.982)"/><circle class="a" cx="14.945" cy="14.945" r="14.945" transform="translate(179.345 70.991)"/><circle class="a" cx="14.945" cy="14.945" r="14.945" transform="translate(177.477 212.973)"/><circle class="a" cx="14.945" cy="14.945" r="14.945" transform="translate(179.345 35.495)"/><circle class="a" cx="14.945" cy="14.945" r="14.945" transform="translate(177.477 177.477)"/><circle class="a" cx="14.945" cy="14.945" r="14.945" transform="translate(179.345 106.486)"/><circle class="a" cx="14.945" cy="14.945" r="14.945" transform="translate(177.477 248.468)"/><circle class="a" cx="14.945" cy="14.945" r="14.945" transform="translate(108.355)"/><circle class="a" cx="14.945" cy="14.945" r="14.945" transform="translate(106.486 141.982)"/><circle class="a" cx="14.945" cy="14.945" r="14.945" transform="translate(108.355 70.991)"/><circle class="a" cx="14.945" cy="14.945" r="14.945" transform="translate(106.486 212.973)"/><circle class="a" cx="14.945" cy="14.945" r="14.945" transform="translate(108.355 35.495)"/><circle class="a" cx="14.945" cy="14.945" r="14.945" transform="translate(106.486 177.477)"/><circle class="a" cx="14.945" cy="14.945" r="14.945" transform="translate(108.355 106.486)"/><circle class="a" cx="14.945" cy="14.945" r="14.945" transform="translate(106.486 248.468)"/><circle class="a" cx="14.945" cy="14.945" r="14.945" transform="translate(250.336)"/><circle class="a" cx="14.945" cy="14.945" r="14.945" transform="translate(248.468 141.982)"/><circle class="a" cx="14.945" cy="14.945" r="14.945" transform="translate(250.336 70.991)"/><circle class="a" cx="14.945" cy="14.945" r="14.945" transform="translate(248.468 212.973)"/><circle class="a" cx="14.945" cy="14.945" r="14.945" transform="translate(250.336 35.495)"/><circle class="a" cx="14.945" cy="14.945" r="14.945" transform="translate(248.468 177.477)"/><circle class="a" cx="14.945" cy="14.945" r="14.945" transform="translate(250.336 106.486)"/><circle class="a" cx="14.945" cy="14.945" r="14.945" transform="translate(248.468 248.468)"/></g></g><path class="a" d="M846.484 856.071l23.335 23.335-23.335 23.334-23.335-23.334zm174.5-184.166h17v17h-17zm-276-576h17v17h-17zm-580 759h17v17h-17zm1765-811h17v17h-17zm-1208.5 598.166l23.335 23.335-23.335 23.334-23.335-23.334z"/><g class="b"><path class="d" d="M1966.557 69.112l-28.28 15.758-27.711-16.736.567-32.495 28.28-15.759 27.711 16.737z"/><path class="e" d="M1957.025 42.2l-17.815-10.76-18.18 10.131-.365 20.98 17.815 10.76 18.18-10.132.365-20.98m10.1-5.582l-.568 32.495-28.28 15.758-27.711-16.736.567-32.495 28.28-15.759 27.711 16.737z"/></g><path class="a" d="M474.984 25.905h15v15h-15z"/><g class="b"><path class="d" d="M502.288 45.02L482.45 55.975l-19.444-11.64.395-22.605 19.838-10.956 19.444 11.641z"/><path class="e" d="M497.633 25.222l-14.495-8.68-14.79 8.169-.293 16.819 14.495 8.68 14.79-8.17.293-16.818m5.05-2.804l-.395 22.601-19.838 10.958-19.445-11.643.395-22.602 19.839-10.958 19.444 11.644z"/></g><g class="b"><path class="d" d="M1092.482 62.326l-17.172 9.702-16.822-10.295.349-19.997 17.172-9.702 16.822 10.295z"/><path class="e" d="M1087.782 45.102l-11.875-7.268-12.121 6.849-.25 14.278 11.876 7.267 12.121-6.848.25-14.278m5.048-2.773l-.349 19.997-17.172 9.702-16.822-10.295.349-19.997 17.172-9.702 16.822 10.295z"/></g><g class="b"><path class="d" d="M1561.482 873.326l-17.172 9.702-16.822-10.295.349-19.997 17.172-9.702 16.822 10.295z"/><path class="e" d="M1556.782 856.102l-11.875-7.268-12.121 6.849-.25 14.278 11.876 7.267 12.121-6.848.25-14.278m5.048-2.773l-.349 19.997-17.172 9.702-16.822-10.295.349-19.997 17.172-9.702 16.822 10.295z"/></g><g class="b"><path class="d" d="M1053.482 378.326l-17.172 9.702-16.822-10.295.349-19.997 17.172-9.702 16.822 10.295z"/><path class="e" d="M1048.782 361.102l-11.875-7.268-12.121 6.849-.25 14.278 11.876 7.267 12.121-6.848.25-14.278m5.048-2.773l-.349 19.997-17.172 9.702-16.822-10.295.349-19.997 17.172-9.702 16.822 10.295z"/></g></svg>