<svg xmlns="http://www.w3.org/2000/svg" xmlns:xlink="http://www.w3.org/1999/xlink" width="1967.408" height="902.74" viewBox="0 0 1967.408 902.74"><defs><style>.a,.e{fill:rgba(255,255,255,0.07);}.b{fill:none;}.c{clip-path:url(#a);}.d,.e{stroke:none;}</style><clipPath id="a"><rect class="a" width="246.6" height="244.732" transform="translate(307 848)"/></clipPath></defs><g class="b" transform="translate(150.386 641.47) rotate(-89)"><path class="d" d="M39.75,0,53,23,39.75,46H13.25L0,23,13.25,0Z"/><path class="e" d="M 19.02981567382813 10 L 11.54068374633789 23 L 19.02981567382813 36 L 33.97018432617188 36 L 41.45931625366211 23 L 33.97018432617188 10 L 19.02981567382813 10 M 13.25 0 L 39.75 0 L 53 23 L 39.75 46 L 13.25 46 L 0 23 L 13.25 0 Z"/></g><g class="c" transform="translate(555.596 -816.708) rotate(45)"><g transform="translate(290.186 831.186)"><circle class="a" cx="14.945" cy="14.945" r="14.945" transform="translate(1.868)"/><circle class="a" cx="14.945" cy="14.945" r="14.945" transform="translate(0 141.982)"/><circle class="a" cx="14.945" cy="14.945" r="14.945" transform="translate(1.868 70.991)"/><circle class="a" cx="14.945" cy="14.945" r="14.945" transform="translate(0 212.973)"/><circle class="a" cx="14.945" cy="14.945" r="14.945" transform="translate(1.868 35.495)"/><circle class="a" cx="14.945" cy="14.945" r="14.945" transform="translate(0 177.477)"/><circle class="a" cx="14.945" cy="14.945" r="14.945" transform="translate(1.868 106.486)"/><circle class="a" cx="14.945" cy="14.945" r="14.945" transform="translate(0 248.468)"/><circle class="a" cx="14.945" cy="14.945" r="14.945" transform="translate(143.85)"/><circle class="a" cx="14.945" cy="14.945" r="14.945" transform="translate(141.982 141.982)"/><circle class="a" cx="14.945" cy="14.945" r="14.945" transform="translate(143.85 70.991)"/><circle class="a" cx="14.945" cy="14.945" r="14.945" transform="translate(141.982 212.973)"/><circle class="a" cx="14.945" cy="14.945" r="14.945" transform="translate(143.85 35.495)"/><circle class="a" cx="14.945" cy="14.945" r="14.945" transform="translate(141.982 177.477)"/><circle class="a" cx="14.945" cy="14.945" r="14.945" transform="translate(143.85 106.486)"/><circle class="a" cx="14.945" cy="14.945" r="14.945" transform="translate(141.982 248.468)"/><circle class="a" cx="14.945" cy="14.945" r="14.945" transform="translate(72.859)"/><circle class="a" cx="14.945" cy="14.945" r="14.945" transform="translate(70.991 141.982)"/><circle class="a" cx="14.945" cy="14.945" r="14.945" transform="translate(72.859 70.991)"/><circle class="a" cx="14.945" cy="14.945" r="14.945" transform="translate(70.991 212.973)"/><circle class="a" cx="14.945" cy="14.945" r="14.945" transform="translate(72.859 35.495)"/><circle class="a" cx="14.945" cy="14.945" r="14.945" transform="translate(70.991 177.477)"/><circle class="a" cx="14.945" cy="14.945" r="14.945" transform="translate(72.859 106.486)"/><circle class="a" cx="14.945" cy="14.945" r="14.945" transform="translate(70.991 248.468)"/><circle class="a" cx="14.945" cy="14.945" r="14.945" transform="translate(214.841)"/><circle class="a" cx="14.945" cy="14.945" r="14.945" transform="translate(212.973 141.982)"/><circle class="a" cx="14.945" cy="14.945" r="14.945" transform="translate(214.841 70.991)"/><circle class="a" cx="14.945" cy="14.945" r="14.945" transform="translate(212.973 212.973)"/><circle class="a" cx="14.945" cy="14.945" r="14.945" transform="translate(214.841 35.495)"/><circle class="a" cx="14.945" cy="14.945" r="14.945" transform="translate(212.973 177.477)"/><circle class="a" cx="14.945" cy="14.945" r="14.945" transform="translate(214.841 106.486)"/><circle class="a" cx="14.945" cy="14.945" r="14.945" transform="translate(212.973 248.468)"/><circle class="a" cx="14.945" cy="14.945" r="14.945" transform="translate(37.364)"/><circle class="a" cx="14.945" cy="14.945" r="14.945" transform="translate(35.495 141.982)"/><circle class="a" cx="14.945" cy="14.945" r="14.945" transform="translate(37.364 70.991)"/><circle class="a" cx="14.945" cy="14.945" r="14.945" transform="translate(35.495 212.973)"/><circle class="a" cx="14.945" cy="14.945" r="14.945" transform="translate(37.364 35.495)"/><circle class="a" cx="14.945" cy="14.945" r="14.945" transform="translate(35.495 177.477)"/><circle class="a" cx="14.945" cy="14.945" r="14.945" transform="translate(37.364 106.486)"/><circle class="a" cx="14.945" cy="14.945" r="14.945" transform="translate(35.495 248.468)"/><circle class="a" cx="14.945" cy="14.945" r="14.945" transform="translate(179.345)"/><circle class="a" cx="14.945" cy="14.945" r="14.945" transform="translate(177.477 141.982)"/><circle class="a" cx="14.945" cy="14.945" r="14.945" transform="translate(179.345 70.991)"/><circle class="a" cx="14.945" cy="14.945" r="14.945" transform="translate(177.477 212.973)"/><circle class="a" cx="14.945" cy="14.945" r="14.945" transform="translate(179.345 35.495)"/><circle class="a" cx="14.945" cy="14.945" r="14.945" transform="translate(177.477 177.477)"/><circle class="a" cx="14.945" cy="14.945" r="14.945" transform="translate(179.345 106.486)"/><circle class="a" cx="14.945" cy="14.945" r="14.945" transform="translate(177.477 248.468)"/><circle class="a" cx="14.945" cy="14.945" r="14.945" transform="translate(108.355)"/><circle class="a" cx="14.945" cy="14.945" r="14.945" transform="translate(106.486 141.982)"/><circle class="a" cx="14.945" cy="14.945" r="14.945" transform="translate(108.355 70.991)"/><circle class="a" cx="14.945" cy="14.945" r="14.945" transform="translate(106.486 212.973)"/><circle class="a" cx="14.945" cy="14.945" r="14.945" transform="translate(108.355 35.495)"/><circle class="a" cx="14.945" cy="14.945" r="14.945" transform="translate(106.486 177.477)"/><circle class="a" cx="14.945" cy="14.945" r="14.945" transform="translate(108.355 106.486)"/><circle class="a" cx="14.945" cy="14.945" r="14.945" transform="translate(106.486 248.468)"/><circle class="a" cx="14.945" cy="14.945" r="14.945" transform="translate(250.336)"/><circle class="a" cx="14.945" cy="14.945" r="14.945" transform="translate(248.468 141.982)"/><circle class="a" cx="14.945" cy="14.945" r="14.945" transform="translate(250.336 70.991)"/><circle class="a" cx="14.945" cy="14.945" r="14.945" transform="translate(248.468 212.973)"/><circle class="a" cx="14.945" cy="14.945" r="14.945" transform="translate(250.336 35.495)"/><circle class="a" cx="14.945" cy="14.945" r="14.945" transform="translate(248.468 177.477)"/><circle class="a" cx="14.945" cy="14.945" r="14.945" transform="translate(250.336 106.486)"/><circle class="a" cx="14.945" cy="14.945" r="14.945" transform="translate(248.468 248.468)"/></g></g><rect class="a" width="33" height="33" transform="translate(846.484 856.071) rotate(45)"/><rect class="a" width="17" height="17" transform="translate(1020.984 671.905)"/><rect class="a" width="17" height="17" transform="translate(744.984 95.905)"/><rect class="a" width="17" height="17" transform="translate(164.984 854.905)"/><rect class="a" width="17" height="17" transform="translate(1929.984 43.905)"/><rect class="a" width="33" height="33" transform="translate(721.484 642.071) rotate(45)"/><g class="b" transform="translate(1967.408 20.369) rotate(91)"><path class="d" d="M48.75,0,65,28,48.75,56H16.25L0,28,16.25,0Z"/><path class="e" d="M 22.00849151611328 9.999996185302734 L 11.56206130981445 27.99999809265137 L 22.00849151611328 46 L 42.99150848388672 46 L 53.43793869018555 27.99999809265137 L 42.99150848388672 9.999996185302734 L 22.00849151611328 9.999996185302734 M 16.25 -3.814697265625e-06 L 48.75 -3.814697265625e-06 L 65 27.99999809265137 L 48.75 56 L 16.25 56 L 0 27.99999809265137 L 16.25 -3.814697265625e-06 Z"/></g><rect class="a" width="15" height="15" transform="translate(474.984 25.905)"/><g class="b" transform="translate(502.88 11.117) rotate(91)"><path class="d" d="M33.908,0l11.3,19.644-11.3,19.644H11.3L0,19.644,11.3,0Z"/><path class="e" d="M 14.19428253173828 5.000003814697266 L 5.768520355224609 19.64436149597168 L 14.19427299499512 34.28871536254883 L 31.01589584350586 34.28871536254883 L 39.441650390625 19.64435958862305 L 31.01589584350586 5.000003814697266 L 14.19428253173828 5.000003814697266 M 11.30255126953125 3.814697265625e-06 L 33.90763092041016 3.814697265625e-06 L 45.21017456054688 19.64435958862305 L 33.90763092041016 39.28871536254883 L 11.30253982543945 39.28871536254883 L -3.814697265625e-06 19.64435958862305 L 11.30255126953125 3.814697265625e-06 Z"/></g><g class="b" transform="translate(1093.006 32.331) rotate(91)"><path class="d" d="M30,0,40,17,30,34H10L0,17,10,0Z"/><path class="e" d="M 12.8597297668457 5 L 5.800907135009766 17 L 12.8597297668457 29 L 27.1402702331543 29 L 34.1990966796875 17 L 27.1402702331543 5 L 12.8597297668457 5 M 10 0 L 30 0 L 40 17 L 30 34 L 10 34 L 0 17 L 10 0 Z"/></g><g class="b" transform="translate(1562.006 843.331) rotate(91)"><path class="d" d="M30,0,40,17,30,34H10L0,17,10,0Z"/><path class="e" d="M 12.8597297668457 5 L 5.800907135009766 17 L 12.8597297668457 29 L 27.1402702331543 29 L 34.1990966796875 17 L 27.1402702331543 5 L 12.8597297668457 5 M 10 0 L 30 0 L 40 17 L 30 34 L 10 34 L 0 17 L 10 0 Z"/></g><g class="b" transform="translate(1054.006 348.331) rotate(91)"><path class="d" d="M30,0,40,17,30,34H10L0,17,10,0Z"/><path class="e" d="M 12.8597297668457 5 L 5.800907135009766 17 L 12.8597297668457 29 L 27.1402702331543 29 L 34.1990966796875 17 L 27.1402702331543 5 L 12.8597297668457 5 M 10 0 L 30 0 L 40 17 L 30 34 L 10 34 L 0 17 L 10 0 Z"/></g></svg>