<svg xmlns="http://www.w3.org/2000/svg" width="42.812" height="51.825" viewBox="0 0 42.812 51.825">
  <g id="file" transform="translate(-44.522)">
    <g id="Group_8" data-name="Group 8" transform="translate(44.522)">
      <g id="Group_7" data-name="Group 7" transform="translate(0)">
        <path id="Path_7" data-name="Path 7" d="M87,11.6,75.737.33a1.122,1.122,0,0,0-.8-.33H47.9a3.384,3.384,0,0,0-3.38,3.38V48.445a3.384,3.384,0,0,0,3.38,3.38H83.954a3.384,3.384,0,0,0,3.38-3.378V12.393A1.123,1.123,0,0,0,87,11.6ZM53.535,13.52V9.013H71.561V13.52ZM85.081,48.445a1.127,1.127,0,0,1-1.127,1.127H47.9a1.128,1.128,0,0,1-1.127-1.127V3.38A1.128,1.128,0,0,1,47.9,2.253H71.561V6.76H52.408a1.127,1.127,0,0,0-1.127,1.127v6.76a1.127,1.127,0,0,0,1.127,1.127H85.081V48.445Zm0-34.925H73.814V2.253h.66L85.081,12.859Z" transform="translate(-44.522)" fill="#fff"/>
        <path id="Path_8" data-name="Path 8" d="M112.432,202.6h13.52a1.127,1.127,0,1,0,0-2.253h-13.52a1.127,1.127,0,1,0,0,2.253Z" transform="translate(-104.545 -180.07)" fill="#fff"/>
        <path id="Path_9" data-name="Path 9" d="M112.432,336.167h13.52a1.127,1.127,0,0,0,0-2.253h-13.52a1.127,1.127,0,0,0,0,2.253Z" transform="translate(-104.545 -300.115)" fill="#fff"/>
        <path id="Path_10" data-name="Path 10" d="M111.3,268.258a1.126,1.126,0,0,0,1.127,1.127H139.47a1.127,1.127,0,0,0,0-2.253H112.431A1.126,1.126,0,0,0,111.3,268.258Z" transform="translate(-104.544 -240.092)" fill="#fff"/>
        <path id="Path_11" data-name="Path 11" d="M139.471,400.7H112.432a1.127,1.127,0,0,0,0,2.253h27.039a1.127,1.127,0,0,0,0-2.253Z" transform="translate(-104.545 -360.137)" fill="#fff"/>
      </g>
    </g>
  </g>
</svg>
