<svg xmlns="http://www.w3.org/2000/svg" width="46.864" height="44.912" viewBox="0 0 46.864 44.912">
  <path id="git" d="M23.432.5A23.229,23.229,0,0,0,0,23.526,23.064,23.064,0,0,0,16.022,45.372c1.172.217,1.6-.5,1.6-1.107,0-.547-.02-2-.029-3.915C11.076,41.738,9.7,37.261,9.7,37.261a6.138,6.138,0,0,0-2.607-3.368c-2.123-1.427.164-1.4.164-1.4a4.9,4.9,0,0,1,3.589,2.372c2.089,3.521,5.485,2.5,6.825,1.916A4.875,4.875,0,0,1,19.156,33.7c-5.2-.576-10.673-2.556-10.673-11.378a8.8,8.8,0,0,1,2.412-6.178,8.056,8.056,0,0,1,.205-6.094s1.962-.617,6.444,2.361a22.467,22.467,0,0,1,11.716,0c4.452-2.978,6.415-2.361,6.415-2.361a8.279,8.279,0,0,1,.234,6.094,8.833,8.833,0,0,1,2.4,6.178c0,8.846-5.477,10.792-10.691,11.359A5.464,5.464,0,0,1,29.2,37.944c0,3.081-.029,5.557-.029,6.305,0,.6.41,1.324,1.611,1.093A22.994,22.994,0,0,0,46.864,23.526,23.233,23.233,0,0,0,23.432.5Z" transform="translate(0 -0.5)" fill="#fff"/>
</svg>
