<svg xmlns="http://www.w3.org/2000/svg" width="56" height="42.656" viewBox="0 0 56 42.656">
  <g id="gmail" transform="translate(0 -61)">
    <g id="Group_9" data-name="Group 9" transform="translate(0 71.66)">
      <path id="Path_12" data-name="Path 12" d="M108.156,238.837a1.638,1.638,0,0,1-.982-.326L90,225.683v24.644h36.312V225.683L109.138,238.51A1.639,1.639,0,0,1,108.156,238.837Z" transform="translate(-80.156 -218.331)" fill="#fff"/>
      <path id="Path_13" data-name="Path 13" d="M6.562,163.364,0,158.463v27.074a4.927,4.927,0,0,0,4.922,4.922H6.562Z" transform="translate(0 -158.463)" fill="#fff"/>
      <path id="Path_14" data-name="Path 14" d="M452,163.364v27.095h1.641a4.927,4.927,0,0,0,4.922-4.922V158.463Z" transform="translate(-402.563 -158.463)" fill="#fff"/>
    </g>
    <g id="Group_10" data-name="Group 10" transform="translate(0 61)">
      <path id="Path_15" data-name="Path 15" d="M110.671,61H69.979L90.325,76.18Z" transform="translate(-62.325 -61)" fill="#fff"/>
      <path id="Path_16" data-name="Path 16" d="M53.192,65.371,28.981,83.434a1.641,1.641,0,0,1-1.962,0L2.808,65.371A4.928,4.928,0,0,0,0,69.815v1.842a1.63,1.63,0,0,1,.659.293L28,92.37,55.341,71.95A1.632,1.632,0,0,1,56,71.657V69.815a4.928,4.928,0,0,0-2.808-4.444Z" transform="translate(0 -64.893)" fill="#fff"/>
    </g>
  </g>
</svg>
