<svg xmlns="http://www.w3.org/2000/svg" width="46.06" height="46.06" viewBox="0 0 46.06 46.06">
  <path id="linkedin" d="M14.395,38.053H8.1V17.722h6.3Zm.628-26.808a3.688,3.688,0,1,0-3.686,3.689A3.689,3.689,0,0,0,15.023,11.245ZM37.964,26.868c0-5.458-1.153-9.506-7.529-9.506a6.535,6.535,0,0,0-5.96,3.125H24.47V17.722H18.352V38.053H24.47V27.959c0-2.644.673-5.2,3.95-5.2,3.232,0,3.337,3.023,3.337,5.373v9.927h6.207Zm8.1,13.794V5.4a5.4,5.4,0,0,0-5.4-5.4H5.4A5.4,5.4,0,0,0,0,5.4V40.662a5.4,5.4,0,0,0,5.4,5.4H40.662A5.4,5.4,0,0,0,46.06,40.662ZM40.662,3.6a1.8,1.8,0,0,1,1.8,1.8V40.662a1.8,1.8,0,0,1-1.8,1.8H5.4a1.8,1.8,0,0,1-1.8-1.8V5.4A1.8,1.8,0,0,1,5.4,3.6Zm0,0" transform="translate(0)" fill="#fff"/>
</svg>
